<svg version="1.1" id="Layer_1" xmlns="http://www.w3.org/2000/svg" xmlns:xlink="http://www.w3.org/1999/xlink" x="0px" y="0px"
	 width="100%" viewBox="0 0 132 119" enable-background="new 0 0 132 119" xml:space="preserve">
<path fill="#FEFEFE" opacity="1.000000" stroke="none" 
	d="
M1.000000,52.000000 
	C1.000000,35.666668 1.064973,19.832792 0.933064,4.000558 
	C0.912212,1.497773 1.500281,0.930679 4.000136,0.936009 
	C45.999947,1.025563 88.000053,1.025563 129.999863,0.936009 
	C132.499725,0.930679 133.070389,1.500143 133.064224,4.000158 
	C132.971542,41.666599 132.971558,79.333405 133.064240,116.999840 
	C133.070404,119.499855 132.499725,120.069321 129.999863,120.063995 
	C88.000053,119.974442 45.999947,119.974442 4.000136,120.063995 
	C1.500281,120.069321 0.920786,119.501038 0.934130,116.999649 
	C1.048819,95.500259 1.000000,74.000000 1.000000,52.000000 
z"/>
<path fill="#282828" opacity="1.000000" stroke="none" 
	d="
M80.020401,56.906662 
	C87.650940,60.928772 90.518097,67.029030 88.966087,75.295036 
	C87.632729,82.396507 81.222855,88.553520 73.750229,88.990540 
	C66.127792,89.436310 58.462219,89.148170 50.815510,89.173386 
	C48.142834,89.182198 46.955280,87.884193 46.962162,85.164169 
	C47.006729,67.540550 47.009975,49.916687 46.959480,32.293095 
	C46.951214,29.409328 48.043144,27.949224 51.037788,27.971191 
	C57.687893,28.019981 64.361694,27.642313 70.982559,28.085323 
	C77.589485,28.527405 82.644470,31.945641 84.974762,38.374023 
	C87.353050,44.934780 85.504135,50.454102 79.977348,54.686111 
	C79.060959,55.387810 78.286247,55.852989 80.020401,56.906662 
z"/>
<path fill="#381C1B" opacity="1.000000" stroke="none" 
	d="
M27.835798,27.241838 
	C26.619446,29.638893 25.065062,29.991695 23.488623,28.230713 
	C22.696115,27.345434 22.660801,25.911461 23.856449,25.211786 
	C25.752842,24.102049 27.332520,24.372509 27.835798,27.241838 
z"/>
<path fill="#3E2322" opacity="1.000000" stroke="none" 
	d="
M14.100707,44.463310 
	C15.827345,42.894981 17.352720,42.685223 18.308746,44.758591 
	C19.001900,46.261852 18.133457,47.529774 16.718710,47.791683 
	C14.567636,48.189899 13.720977,46.879154 14.100707,44.463310 
z"/>
<path fill="#462C2B" opacity="1.000000" stroke="none" 
	d="
M102.908409,97.251389 
	C105.328697,98.467117 105.693420,100.038483 103.976021,101.611084 
	C102.915001,102.582642 101.422997,102.430664 100.610489,101.070396 
	C99.324005,98.916611 100.450523,97.760857 102.908409,97.251389 
z"/>
<path fill="#3F2423" opacity="1.000000" stroke="none" 
	d="
M105.709427,25.544437 
	C105.256424,22.817312 106.433083,21.924646 108.642555,22.474310 
	C109.932426,22.795200 110.486748,23.999319 109.969666,25.150246 
	C109.049744,27.197838 107.607277,27.706587 105.709427,25.544437 
z"/>
<path fill="#3E2322" opacity="1.000000" stroke="none" 
	d="
M85.605911,112.012756 
	C82.828186,112.505959 81.746284,111.372986 82.268188,109.072540 
	C82.555473,107.806229 83.839180,107.312103 85.051147,107.720314 
	C87.497963,108.544441 87.467865,110.078293 85.605911,112.012756 
z"/>
<path fill="#361918" opacity="1.000000" stroke="none" 
	d="
M102.444626,17.800697 
	C101.440582,20.069881 100.089203,20.637236 98.500542,19.068993 
	C97.437424,18.019533 97.463806,16.426992 98.676834,15.595304 
	C100.744690,14.177517 102.018013,15.240236 102.444626,17.800697 
z"/>
<path fill="#381C1B" opacity="1.000000" stroke="none" 
	d="
M53.946590,108.668961 
	C56.592735,109.826050 56.599995,111.361389 54.865360,112.858238 
	C53.942558,113.654541 52.582493,113.581276 51.826214,112.440697 
	C50.429203,110.333771 51.287464,109.091980 53.946590,108.668961 
z"/>
<path fill="#3B201F" opacity="1.000000" stroke="none" 
	d="
M79.397766,7.142860 
	C81.326691,5.293684 82.908737,5.345764 83.852448,7.579762 
	C84.362946,8.788243 83.710953,9.951712 82.423515,10.327807 
	C79.965912,11.045739 79.167206,9.687758 79.397766,7.142860 
z"/>
<path fill="#3B201F" opacity="1.000000" stroke="none" 
	d="
M73.605247,6.806091 
	C72.547829,9.019198 71.205864,9.667940 69.580124,8.070774 
	C68.483681,6.993607 68.515343,5.440764 69.761742,4.590002 
	C71.859108,3.158384 73.131233,4.255086 73.605247,6.806091 
z"/>
<path fill="#3B201F" opacity="1.000000" stroke="none" 
	d="
M59.742088,4.517315 
	C62.519711,4.077950 63.491493,5.254900 62.975628,7.558590 
	C62.670410,8.921592 61.434288,9.421602 60.258598,8.972208 
	C57.896423,8.069296 58.062080,6.442682 59.742088,4.517315 
z"/>
<path fill="#402525" opacity="1.000000" stroke="none" 
	d="
M73.256439,110.244598 
	C75.969444,109.859177 77.136314,110.913177 76.509949,113.246559 
	C76.194794,114.420570 75.009140,115.155930 73.742050,114.640526 
	C71.463074,113.713509 71.355148,112.180222 73.256439,110.244598 
z"/>
<path fill="#361918" opacity="1.000000" stroke="none" 
	d="
M94.474663,103.346069 
	C96.886131,104.694107 96.848717,106.321709 95.196251,107.737152 
	C94.326630,108.482048 92.820435,108.382210 92.224937,107.159729 
	C91.292183,105.244911 91.582443,103.639221 94.474663,103.346069 
z"/>
<path fill="#3B201F" opacity="1.000000" stroke="none" 
	d="
M62.756374,114.855797 
	C61.322823,112.951164 60.931763,111.246994 63.356544,110.365707 
	C64.554802,109.930199 65.746033,110.513268 66.026108,111.831886 
	C66.510239,114.111176 65.567863,115.318748 62.756374,114.855797 
z"/>
<path fill="#442928" opacity="1.000000" stroke="none" 
	d="
M29.816673,94.057152 
	C29.270489,96.400818 28.266224,97.789337 26.037233,96.385811 
	C24.725925,95.560120 24.489218,94.079086 25.470804,92.996384 
	C27.034552,91.271538 28.603704,91.619064 29.816673,94.057152 
z"/>
<path fill="#371B1A" opacity="1.000000" stroke="none" 
	d="
M19.038307,85.519737 
	C20.327492,83.143997 21.876064,83.026039 23.366354,84.740578 
	C24.246098,85.752686 23.888966,87.177597 22.843990,87.758972 
	C20.927658,88.825134 19.351715,88.432175 19.038307,85.519737 
z"/>
<path fill="#3A1F1E" opacity="1.000000" stroke="none" 
	d="
M115.631958,85.583527 
	C112.989632,85.127136 112.252258,83.671364 113.388718,81.666962 
	C114.026138,80.542725 115.617958,80.457939 116.493805,81.175110 
	C118.322662,82.672646 118.024414,84.264252 115.631958,85.583527 
z"/>
<path fill="#3A1F1E" opacity="1.000000" stroke="none" 
	d="
M18.757240,78.105377 
	C16.241909,79.575264 15.021060,78.666214 14.834478,76.324257 
	C14.734766,75.072685 15.418390,74.019524 16.882706,74.062233 
	C19.592300,74.141243 19.666460,75.795532 18.757240,78.105377 
z"/>
<path fill="#381C1B" opacity="1.000000" stroke="none" 
	d="
M13.135091,67.892944 
	C11.974260,65.732643 12.403499,64.344040 14.615163,64.076439 
	C16.186037,63.886368 17.257929,64.844681 17.007544,66.457962 
	C16.676378,68.591705 15.288849,69.072632 13.135091,67.892944 
z"/>
<path fill="#3A1F1E" opacity="1.000000" stroke="none" 
	d="
M122.857437,62.111420 
	C123.189735,64.810966 122.219719,66.014877 119.839531,65.344276 
	C118.616653,64.999733 117.955185,63.802185 118.439293,62.578957 
	C119.364037,60.242298 120.977882,60.401020 122.857437,62.111420 
z"/>
<path fill="#3F2423" opacity="1.000000" stroke="none" 
	d="
M120.127380,43.713417 
	C118.265770,45.561508 116.747734,45.533909 115.893471,43.237656 
	C115.466759,42.090641 115.864594,40.830677 117.194176,40.469173 
	C119.651245,39.801105 120.466629,41.105415 120.127380,43.713417 
z"/>
<path fill="#492F2E" opacity="1.000000" stroke="none" 
	d="
M34.998604,19.013405 
	C34.602264,21.690359 33.244610,22.430258 31.236767,21.274832 
	C29.938154,20.527534 29.654156,19.132530 30.729542,17.971806 
	C32.346088,16.226978 33.815205,16.652409 34.998604,19.013405 
z"/>
<path fill="#371B1A" opacity="1.000000" stroke="none" 
	d="
M89.009491,12.239731 
	C89.334244,9.183731 91.060989,9.223210 92.823700,10.183425 
	C93.884140,10.761087 94.190384,12.154395 93.273956,13.129465 
	C91.756897,14.743587 90.225357,14.618554 89.009491,12.239731 
z"/>
<path fill="#371B1A" opacity="1.000000" stroke="none" 
	d="
M118.073837,53.151016 
	C118.547272,50.117298 120.246284,50.229492 122.056740,51.268948 
	C123.012390,51.817623 123.118660,52.953171 122.414162,53.869888 
	C120.842323,55.915226 119.408264,55.395306 118.073837,53.151016 
z"/>
<path fill="#371B1A" opacity="1.000000" stroke="none" 
	d="
M108.658752,94.148117 
	C106.806145,92.325874 106.753838,90.770569 109.120529,89.987068 
	C110.423759,89.555626 111.762428,89.977249 111.987885,91.701912 
	C112.291725,94.026207 110.897179,94.456467 108.658752,94.148117 
z"/>
<path fill="#391E1D" opacity="1.000000" stroke="none" 
	d="
M41.793198,108.265442 
	C41.296181,105.489334 42.365681,104.493317 44.731361,105.021141 
	C46.217247,105.352669 46.389858,106.680916 46.024055,107.765732 
	C45.211220,110.176270 43.674828,110.168472 41.793198,108.265442 
z"/>
<path fill="#351918" opacity="1.000000" stroke="none" 
	d="
M118.177193,75.728790 
	C116.313560,73.988289 116.047363,72.385468 118.136108,71.230186 
	C119.164848,70.661194 120.471954,70.932449 120.933975,72.280327 
	C121.666382,74.417038 120.953270,75.750381 118.177193,75.728790 
z"/>
<path fill="#341716" opacity="1.000000" stroke="none" 
	d="
M16.835087,55.914589 
	C15.814408,58.535145 14.254122,58.749790 12.548351,57.243004 
	C11.764527,56.550610 11.753612,55.262600 12.553362,54.557995 
	C14.282252,53.034771 15.834160,53.262749 16.835087,55.914589 
z"/>
<path fill="#2F1211" opacity="1.000000" stroke="none" 
	d="
M21.957508,34.704712 
	C22.286974,37.038692 21.592081,38.236614 19.391586,37.989338 
	C17.907959,37.822613 17.493731,36.607994 17.749592,35.498795 
	C18.363022,32.839462 20.134377,33.525917 21.957508,34.704712 
z"/>
<path fill="#351918" opacity="1.000000" stroke="none" 
	d="
M37.198250,101.257492 
	C37.045547,103.752426 35.842758,104.602516 33.949986,103.806190 
	C32.530262,103.208885 32.298508,101.637184 33.078884,100.515030 
	C34.422081,98.583549 35.941544,98.756554 37.198250,101.257492 
z"/>
<path fill="#311413" opacity="1.000000" stroke="none" 
	d="
M113.395844,30.926552 
	C116.216240,30.995779 116.543678,32.645649 115.796387,34.327221 
	C115.168243,35.740688 113.353416,35.770435 112.380264,34.889103 
	C110.925232,33.571339 111.032013,31.985291 113.395844,30.926552 
z"/>
<path fill="#422726" opacity="1.000000" stroke="none" 
	d="
M40.080902,11.205626 
	C42.556942,10.806684 43.676052,11.701952 43.299061,13.870051 
	C43.070919,15.182069 41.965645,15.957966 40.713276,15.539766 
	C38.343761,14.748519 38.239254,13.175972 40.080902,11.205626 
z"/>
<path fill="#3A1F1E" opacity="1.000000" stroke="none" 
	d="
M52.861191,8.235661 
	C52.996716,10.816592 51.773182,11.603837 49.817547,11.095308 
	C48.594059,10.777163 47.850883,9.644109 48.419750,8.429941 
	C49.466412,6.196006 51.074440,6.403283 52.861191,8.235661 
z"/>
<path fill="#FDFDFD" opacity="1.000000" stroke="none" 
	d="
M53.082855,65.080528 
	C52.318665,60.420967 54.053185,59.100410 58.183189,59.463978 
	C63.125801,59.899082 68.142776,59.493370 73.084381,59.934902 
	C79.202126,60.481522 82.946487,64.802551 83.145721,70.839882 
	C83.348007,76.969612 79.985168,81.614296 74.160439,82.799164 
	C67.930656,84.066422 61.590046,83.267738 55.300350,83.453461 
	C53.073860,83.519218 53.065109,82.097023 53.073990,80.503868 
	C53.101734,75.527061 53.083424,70.549995 53.082855,65.080528 
z"/>
<path fill="#FCFCFC" opacity="1.000000" stroke="none" 
	d="
M57.075310,53.462109 
	C54.207588,53.736736 52.875782,53.157341 53.020401,50.283508 
	C53.246002,45.800369 53.186543,41.293991 53.035625,36.804596 
	C52.961487,34.599083 53.708183,33.907375 55.874001,33.975037 
	C60.530598,34.120502 65.205940,33.842499 69.851784,34.112865 
	C76.231766,34.484150 79.907722,38.120266 79.926682,43.595451 
	C79.945801,49.115192 76.401688,52.748753 70.039246,53.248386 
	C65.901657,53.573303 61.725586,53.408051 57.075310,53.462109 
z"/>
</svg>